<svg width="70" height="70" viewBox="0 0 70 70" fill="none" xmlns="http://www.w3.org/2000/svg">
<path d="M25.364 43.713C24.6941 42.5552 23.4471 41.8359 22.1097 41.8359H17.1584V38.8657C19.493 38.4096 21.3283 36.4293 21.5172 33.9853C21.5608 33.4206 21.1384 32.9276 20.5739 32.8839C20.0056 32.8385 19.5161 33.2627 19.4725 33.8271C19.3387 35.5582 17.872 36.9141 16.133 36.9141C14.286 36.9141 12.7834 35.4115 12.7834 33.5645C12.7834 31.7174 14.286 30.2148 16.133 30.2148C16.7222 30.2148 17.301 30.3696 17.8072 30.6623C18.2974 30.9457 18.9247 30.7784 19.2081 30.2881C19.4917 29.798 19.3242 29.1707 18.8339 28.8872C18.3138 28.5864 17.7466 28.3765 17.1584 28.263V25.2723C18.5437 24.8358 19.551 23.5393 19.551 22.0117C19.551 20.4818 18.5407 19.1836 17.1521 18.7489L17.1728 16.6178C17.1761 16.2761 17.4179 15.9876 17.7608 15.916C21.4519 15.1461 24.1311 11.8338 24.1311 8.04029C24.1311 3.68471 20.4823 0.00273376 16.1632 -0.000137329C16.1615 -0.000137329 16.1602 -0.000137329 16.1586 -0.000137329C13.0454 -6.10351e-07 10.1461 1.97476 8.77196 5.03193C8.53981 5.54846 8.77032 6.15549 9.28684 6.38764C9.8035 6.61937 10.4103 6.38941 10.6425 5.87275C11.6864 3.55072 13.8512 2.05078 16.1586 2.05078H16.1619C19.02 2.05269 22.0803 4.45976 22.0803 8.04043C22.0803 10.868 20.0876 13.336 17.342 13.9087C16.0479 14.1787 15.135 15.2845 15.1221 16.5981L15.1012 18.7534C13.7193 19.1919 12.7151 20.4866 12.7151 22.0117C12.7151 23.5393 13.7224 24.8358 15.1076 25.2723V28.2629C12.6187 28.7435 10.7326 30.9373 10.7326 33.5645C10.7326 36.1916 12.6187 38.3854 15.1076 38.866V41.8359H10.1564C8.81899 41.8359 7.57198 42.5552 6.90192 43.713L0.930044 54.0354C0.258345 55.1966 0.258345 56.6394 0.930044 57.8009L6.90206 68.1231C7.57198 69.2807 8.81899 70 10.1564 70H22.1097C23.4471 70 24.6941 69.2807 25.3641 68.123L31.336 57.8006C32.0077 56.6393 32.0077 55.1965 31.336 54.0351L25.364 43.713ZM16.133 20.6445C16.8869 20.6445 17.5002 21.2579 17.5002 22.0117C17.5002 22.7656 16.8869 23.3789 16.133 23.3789C15.3792 23.3789 14.7658 22.7656 14.7658 22.0117C14.7658 21.2579 15.3792 20.6445 16.133 20.6445ZM29.5607 56.7738L23.589 67.0961C23.2844 67.6223 22.7175 67.9492 22.1097 67.9492H10.1564C9.54852 67.9492 8.98155 67.6222 8.67721 67.0961L2.70534 56.774C2.40004 56.246 2.40004 55.5901 2.70534 55.0621L8.67708 44.7398C8.98169 44.2136 9.54852 43.8867 10.1564 43.8867H22.1097C22.7175 43.8867 23.2845 44.2137 23.5889 44.7398L29.5607 55.062C29.866 55.5901 29.866 56.2458 29.5607 56.7738Z" fill="#333333"/>
<path d="M21.2436 49.4465C20.8176 48.7087 20.0236 48.2502 19.1716 48.2502H13.0939C12.2419 48.2502 11.4479 48.7087 11.0219 49.4465L7.98309 54.7102C7.55707 55.4481 7.55707 56.3649 7.98309 57.1028L8.46338 57.9346C8.74666 58.4251 9.37379 58.5927 9.86406 58.3099C10.3545 58.0267 10.5225 57.3996 10.2394 56.9092L9.75906 56.0774C9.69822 55.972 9.69822 55.841 9.75906 55.7356L12.7979 50.4719C12.8587 50.3665 12.9721 50.301 13.0939 50.301H19.1715C19.2933 50.301 19.4066 50.3665 19.4675 50.4719L22.5063 55.7356C22.5671 55.841 22.5671 55.972 22.5063 56.0774L19.4675 61.3411C19.4066 61.4465 19.2933 61.512 19.1715 61.512H13.0939C12.8367 61.5342 12.7175 61.1811 12.6073 61.0109C12.324 60.5201 11.6969 60.3529 11.2066 60.6353C10.7161 60.9185 10.5481 61.5456 10.8311 62.036L11.0219 62.3665C11.4479 63.1043 12.2419 63.5627 13.0939 63.5627H19.1715C20.0235 63.5627 20.8174 63.1043 21.2434 62.3665L24.2823 57.1028C24.7083 56.3649 24.7083 55.4481 24.2823 54.7102L21.2436 49.4465Z" fill="#333333"/>
<path d="M69.0703 54.0352L67.3313 51.0296C67.0478 50.5393 66.4205 50.372 65.9302 50.6555C65.4401 50.9391 65.2725 51.5663 65.5562 52.0566L67.2951 55.0621C67.6004 55.5901 67.6004 56.246 67.2951 56.774L61.3234 67.0962C61.0188 67.6225 60.4519 67.9494 59.8441 67.9494H47.8907C47.2829 67.9494 46.7159 67.6223 46.4116 67.0962L40.4397 56.7741C40.1344 56.2461 40.1344 55.5903 40.4397 55.0622L46.4115 44.74C46.7161 44.2138 47.2829 43.8869 47.8907 43.8869H59.8441C60.4519 43.8869 61.0189 44.2139 61.3232 44.74L63.1832 47.9551C63.4668 48.4453 64.0941 48.6127 64.5842 48.3291C65.0744 48.0456 65.242 47.4183 64.9583 46.928L63.0983 43.713C62.4285 42.5552 61.1815 41.8359 59.8441 41.8359H54.8928V38.866C57.3818 38.3854 59.2678 36.1916 59.2678 33.5645C59.2678 30.9373 57.3818 28.7435 54.8928 28.2629V25.2723C56.278 24.8358 57.2854 23.5393 57.2854 22.0117C57.2854 20.4818 56.275 19.1836 54.8865 18.7489L54.9072 16.6178C54.9104 16.2761 55.1523 15.9876 55.4952 15.916C59.1863 15.1461 61.8655 11.8338 61.8655 8.04029C61.8655 7.73582 61.848 7.42929 61.8136 7.12933C61.7491 6.56674 61.2407 6.16205 60.6782 6.22726C60.1156 6.29179 59.7117 6.79998 59.7761 7.36271C59.8017 7.58556 59.8145 7.81361 59.8145 8.04029C59.8145 10.8679 57.8219 13.3358 55.0763 13.9085C53.7821 14.1786 52.8692 15.2843 52.8564 16.5979L52.8355 18.7533C51.4536 19.1919 50.4494 20.4866 50.4494 22.0117C50.4494 23.5393 51.4568 24.8358 52.842 25.2723V28.2629C50.3531 28.7435 48.467 30.9373 48.467 33.5645C48.467 36.1916 50.3531 38.3854 52.842 38.866V41.8359H47.8907C46.5534 41.8359 45.3064 42.5552 44.6363 43.713L38.6644 54.0354C37.9927 55.1966 37.9927 56.6394 38.6644 57.8009L44.6364 68.1231C45.3062 69.2809 46.5534 70.0001 47.8907 70.0001H59.8441C61.1815 70.0001 62.4285 69.2809 63.0985 68.1231L69.0704 57.8007C69.742 56.6393 69.742 55.1966 69.0703 54.0352ZM53.8674 20.6445C54.6213 20.6445 55.2346 21.2579 55.2346 22.0117C55.2346 22.7656 54.6213 23.3789 53.8674 23.3789C53.1135 23.3789 52.5002 22.7656 52.5002 22.0117C52.5002 21.2579 53.1135 20.6445 53.8674 20.6445ZM50.5178 33.5645C50.5178 31.7174 52.0203 30.2148 53.8674 30.2148C55.7145 30.2148 57.217 31.7174 57.217 33.5645C57.217 35.4115 55.7145 36.9141 53.8674 36.9141C52.0203 36.9141 50.5178 35.4115 50.5178 33.5645Z" fill="#333333"/>
<path d="M47.0212 6.38764C47.5256 6.61787 48.1442 6.39461 48.3769 5.87275C49.4208 3.55072 51.5856 2.05078 53.8928 2.05078H53.8963C55.3613 2.05174 56.8443 2.66998 57.9651 3.74705C58.3737 4.13971 59.0228 4.12631 59.4149 3.71834C59.8073 3.30996 59.7944 2.66096 59.3862 2.26857C57.8874 0.828242 55.8869 0.00136719 53.8976 0C53.8958 0 53.8946 0 53.893 0C50.7798 0 47.8805 1.97477 46.5065 5.03193C46.2742 5.54846 46.5047 6.15535 47.0212 6.38764Z" fill="#333333"/>
<path d="M56.9058 48.2502H50.8283C49.9762 48.2502 49.1823 48.7087 48.7563 49.4465L45.7175 54.7102C45.2914 55.4481 45.2914 56.3649 45.7175 57.1028L48.7563 62.3665C49.1823 63.1043 49.9762 63.5627 50.8283 63.5627H56.9058C57.7579 63.5627 58.5518 63.1043 58.9778 62.3665L62.0167 57.1028C62.4427 56.3649 62.4427 55.4481 62.0167 54.7102L58.9778 49.4465C58.5518 48.7087 57.7579 48.2502 56.9058 48.2502ZM60.2405 56.0774L57.2017 61.3411C57.1409 61.4465 57.0275 61.512 56.9057 61.512H50.8281C50.7063 61.512 50.593 61.4465 50.5321 61.3411L47.4933 56.0774C47.4325 55.972 47.4325 55.841 47.4933 55.7356L50.5321 50.4719C50.593 50.3665 50.7063 50.301 50.8281 50.301H56.9057C57.0275 50.301 57.1409 50.3665 57.2017 50.4719L60.2405 55.7356C60.3014 55.8411 60.3014 55.972 60.2405 56.0774Z" fill="#333333"/>
</svg>
